<?xml version="1.0" encoding="UTF-8"?>
<svg version="1.1" xmlns="http://www.w3.org/2000/svg" width="250" height="250">
<path d="M0 0 C2.84930227 1.33109993 4.34803885 3.15424591 6.39453125 5.53515625 C7.18214844 6.44136719 7.96976563 7.34757812 8.78125 8.28125 C9.54050781 9.16941406 10.29976562 10.05757812 11.08203125 10.97265625 C12.28900235 12.34885217 13.49720437 13.7239702 14.70703125 15.09765625 C15.53267578 16.04898437 15.53267578 16.04898437 16.375 17.01953125 C17.5949565 18.41536249 18.82828785 19.79954962 20.0703125 21.17578125 C20.71355469 21.8925 21.35679688 22.60921875 22.01953125 23.34765625 C22.89931641 24.31832031 22.89931641 24.31832031 23.796875 25.30859375 C25.08203125 26.97265625 25.08203125 26.97265625 25.08203125 28.97265625 C25.74203125 28.97265625 26.40203125 28.97265625 27.08203125 28.97265625 C28.421875 30.484375 28.421875 30.484375 30.01953125 32.66015625 C33.65612111 37.49866988 37.53967233 42.07804236 41.52514648 46.62963867 C45.08203125 50.7560229 45.08203125 50.7560229 45.08203125 52.97265625 C46.56703125 53.46765625 46.56703125 53.46765625 48.08203125 53.97265625 C49.45685577 55.50218501 50.75869022 57.09788531 52.01953125 58.72265625 C55.59147877 63.20361488 59.2960742 67.47259889 63.20703125 71.66015625 C67.10882924 75.83894696 70.93960963 80.05749017 74.6796875 84.3828125 C76.39895171 86.33195047 78.2073959 88.17300631 80.08203125 89.97265625 C80.35144531 88.70421875 80.62085938 87.43578125 80.8984375 86.12890625 C82.07261929 80.84973535 83.51870443 75.66695362 85.01953125 70.47265625 C85.27154297 69.58707031 85.52355469 68.70148438 85.78320312 67.7890625 C86.99785254 63.55798193 88.26637777 59.36062631 89.6796875 55.19140625 C90.8233374 51.81530698 91.77143682 48.44663239 92.58203125 44.97265625 C93.44604078 41.40861695 94.37733259 37.93616489 95.58203125 34.47265625 C96.72635476 31.16945435 97.63521632 27.87072248 98.45703125 24.47265625 C100.37477746 16.55554354 102.74365205 8.77341531 105.08203125 0.97265625 C121.68551616 2.29039315 136.36477588 11.25540088 148.08203125 22.97265625 C148.08203125 28.29836417 146.61434284 30.98986269 143.02734375 34.828125 C131.74736938 47.14682827 131.74736938 47.14682827 125.08203125 61.97265625 C129.42445641 59.71553238 132.27784978 56.77379129 135.33203125 53.03515625 C135.80439209 52.46901611 136.27675293 51.90287598 136.76342773 51.31958008 C140.82000896 46.41098749 144.6004974 41.31845311 148.3046875 36.140625 C149.18447266 35.06748047 149.18447266 35.06748047 150.08203125 33.97265625 C150.74203125 33.97265625 151.40203125 33.97265625 152.08203125 33.97265625 C152.74203125 32.65265625 153.40203125 31.33265625 154.08203125 29.97265625 C157.89205682 29.97265625 159.3407436 31.45693796 162.109375 33.92578125 C165.92834491 37.88843518 169.02615264 42.40876798 172.08203125 46.97265625 C172.675 47.82730469 173.26796875 48.68195312 173.87890625 49.5625 C175.08203125 51.97265625 175.08203125 51.97265625 174.953125 54.01953125 C173.92136752 56.33288882 172.67414845 58.20311276 171.14453125 60.22265625 C170.61988281 60.9290625 170.09523437 61.63546875 169.5546875 62.36328125 C169.06871094 62.894375 168.58273438 63.42546875 168.08203125 63.97265625 C167.42203125 63.97265625 166.76203125 63.97265625 166.08203125 63.97265625 C165.83453125 64.57078125 165.58703125 65.16890625 165.33203125 65.78515625 C163.86680973 68.34929392 162.60825922 69.45691947 160.08203125 70.97265625 C156.59556687 71.83743252 153.31480367 72.10429232 149.73046875 72.1484375 C148.71339844 72.17228516 147.69632813 72.19613281 146.6484375 72.22070312 C144.54446782 72.26319456 142.4402435 72.29470057 140.3359375 72.31445312 C132.23157367 72.53362774 123.8133563 73.44828887 117.6875 79.234375 C116.98560547 80.43513672 116.98560547 80.43513672 116.26953125 81.66015625 C115.728125 82.54058594 115.18671875 83.42101562 114.62890625 84.328125 C113.86320312 85.63716797 113.86320312 85.63716797 113.08203125 86.97265625 C112.06968328 88.47839603 111.04913813 89.97866483 110.01953125 91.47265625 C106.87670353 96.20807591 103.9649291 101.07581912 101.08203125 105.97265625 C105.47662881 100.52960141 109.81390823 95.08346699 113.85546875 89.37109375 C114.26023438 88.90960938 114.665 88.448125 115.08203125 87.97265625 C115.74203125 87.97265625 116.40203125 87.97265625 117.08203125 87.97265625 C117.32808105 87.1938208 117.57413086 86.41498535 117.82763672 85.61254883 C119.69252302 81.68786694 121.90985577 81.17869514 125.86816406 79.76318359 C132.45281799 78.1435308 139.20930553 78.04462762 145.95703125 77.78515625 C148.20280353 77.68410614 150.448256 77.57812287 152.69363403 77.46867371 C154.71446413 77.37241545 156.73589344 77.28898802 158.75732422 77.20629883 C164.24140055 76.90716981 164.24140055 76.90716981 168.30078125 73.5390625 C169.43 72.05212891 169.43 72.05212891 170.58203125 70.53515625 C175.22576 64.43628648 175.22576 64.43628648 179.08203125 62.97265625 C179.90035847 64.86598159 180.71145393 66.76243358 181.51953125 68.66015625 C181.97199219 69.71589844 182.42445313 70.77164063 182.890625 71.859375 C184.71375401 76.62342031 185.20579023 80.70066084 185.14453125 85.78515625 C185.13550781 86.76097656 185.12648437 87.73679687 185.1171875 88.7421875 C185.09978516 89.84626953 185.09978516 89.84626953 185.08203125 90.97265625 C180.61432483 92.60799079 176.36692081 93.48481201 171.65625 94.12109375 C170.2130103 94.32114123 168.76981525 94.52151101 167.32666016 94.72216797 C166.58136047 94.82398376 165.83606079 94.92579956 165.06817627 95.03070068 C139.52399032 98.55293742 119.94424272 102.98665133 101.08203125 121.97265625 C100.42203125 122.96265625 99.76203125 123.95265625 99.08203125 124.97265625 C95.51296567 123.51685318 93.8392907 121.68599759 91.58203125 118.59765625 C89.26868231 115.45360474 86.872626 112.70111225 84.08203125 109.97265625 C82.86411632 108.53038857 81.64727905 107.08700169 80.453125 105.625 C78.43539043 103.19337116 76.32476764 100.84362592 74.21875 98.48828125 C73.08203125 96.97265625 73.08203125 96.97265625 73.08203125 94.97265625 C72.52515625 94.74578125 71.96828125 94.51890625 71.39453125 94.28515625 C68.43508035 92.6054679 66.42076341 90.4313234 64.08203125 87.97265625 C63.48390625 87.41578125 62.88578125 86.85890625 62.26953125 86.28515625 C61.08203125 84.97265625 61.08203125 84.97265625 61.08203125 82.97265625 C60.12296875 82.60140625 60.12296875 82.60140625 59.14453125 82.22265625 C57.49906607 81.55103781 55.85823964 80.85906872 54.2734375 80.0546875 C38.27655881 72.16208762 20.88067112 73.24928292 3.70703125 75.66015625 C2.42223877 75.83442139 1.13744629 76.00868652 -0.1862793 76.18823242 C-9.82364811 77.54782912 -19.32862719 79.3346995 -28.81982422 81.48510742 C-30.20838623 81.79798706 -30.20838623 81.79798706 -31.625 82.1171875 C-32.43428955 82.30643799 -33.2435791 82.49568848 -34.07739258 82.69067383 C-34.68478271 82.78372803 -35.29217285 82.87678223 -35.91796875 82.97265625 C-36.24796875 82.64265625 -36.57796875 82.31265625 -36.91796875 81.97265625 C-36.45244978 75.64780522 -35.27704407 69.76520378 -33.60546875 63.66015625 C-33.27107788 62.41903076 -33.27107788 62.41903076 -32.92993164 61.15283203 C-30.28058914 51.45024176 -27.25410565 42.0600921 -22.91796875 32.97265625 C-22.53382812 32.11800781 -22.1496875 31.26335938 -21.75390625 30.3828125 C-18.60710701 23.67516149 -14.83192797 17.57156599 -10.73046875 11.41015625 C-10.20710938 10.62390869 -9.68375 9.83766113 -9.14453125 9.02758789 C-3.00881892 -0.04289559 -3.00881892 -0.04289559 0 0 Z " fill="#F7C845" transform="translate(52.91796875,12.02734375)"/>
<path d="M0 0 C3.64008161 3.26069283 6.57662319 7.20171824 9.61328125 11.01171875 C12.4452049 14.5004583 15.44877712 17.80431043 18.50390625 21.09765625 C19.9375 22.875 19.9375 22.875 19.9375 24.875 C20.47632813 25.06707031 21.01515625 25.25914063 21.5703125 25.45703125 C25.04151113 27.5363136 27.25375797 30.46558427 29.8125 33.5625 C30.56853516 34.46258789 30.56853516 34.46258789 31.33984375 35.38085938 C33.40850947 37.84368263 35.47124803 40.31119886 37.52099609 42.78979492 C40.08195352 45.84664172 42.45551431 48.59688944 45.8125 50.8125 C46.84375 51.493125 47.875 52.17375 48.9375 52.875 C48.42058594 52.04355469 47.90367187 51.21210938 47.37109375 50.35546875 C46.71238281 49.26878906 46.05367187 48.18210938 45.375 47.0625 C44.71371094 45.98355469 44.05242187 44.90460938 43.37109375 43.79296875 C41.9375 40.875 41.9375 40.875 42.9375 37.875 C43.90236328 38.56335938 43.90236328 38.56335938 44.88671875 39.265625 C66.18494861 53.72776111 89.03147538 48.68415163 112.92333984 45.2421875 C115.9375 44.875 115.9375 44.875 119.9375 44.875 C121.20601216 49.18794136 120.86087397 51.8116083 118.9375 55.875 C116.1640625 57.52734375 116.1640625 57.52734375 112.5625 58.8125 C111.91708252 59.0492041 111.27166504 59.2859082 110.60668945 59.52978516 C108.39123594 60.3346006 106.16479757 61.10360788 103.9375 61.875 C102.14652637 62.51783694 100.35618434 63.16243568 98.56640625 63.80859375 C95.04210741 65.0698787 91.51626063 66.32594945 87.98046875 67.5546875 C87.24852295 67.80976074 86.51657715 68.06483398 85.76245117 68.32763672 C83.9375 68.875 83.9375 68.875 81.9375 68.875 C81.9375 69.535 81.9375 70.195 81.9375 70.875 C83.0925 70.4625 84.2475 70.05 85.4375 69.625 C95.66999049 66.21416984 106.33355556 63.81225908 116.9375 61.875 C118.39632531 66.43818027 116.91282405 69.88766627 115.375 74.25 C115.09543457 75.05655029 114.81586914 75.86310059 114.52783203 76.6940918 C107.77428174 95.88869268 98.76113688 114.7323138 84.9375 129.875 C83.58199591 131.4363399 82.2277241 132.99875094 80.875 134.5625 C79.89770724 135.6683256 78.91933135 136.77320211 77.9375 137.875 C75.08025752 137.52578147 74.03718832 136.97852249 72.0078125 134.87109375 C71.36585938 134.02675781 70.72390625 133.18242187 70.0625 132.3125 C69.01449219 130.94931641 69.01449219 130.94931641 67.9453125 129.55859375 C67.28273437 128.67300781 66.62015625 127.78742188 65.9375 126.875 C65.41929687 126.18535156 64.90109375 125.49570313 64.3671875 124.78515625 C63.40766099 123.50316592 62.45065928 122.21928228 61.49609375 120.93359375 C59.70470893 118.56752909 57.85781747 116.25174864 56 113.9375 C55.33097656 113.10347656 54.66195312 112.26945312 53.97265625 111.41015625 C52.6067177 109.70863203 51.23951283 108.00812368 49.87109375 106.30859375 C48.91396484 105.10396484 48.91396484 105.10396484 47.9375 103.875 C47.36 103.153125 46.7825 102.43125 46.1875 101.6875 C44.9375 99.875 44.9375 99.875 44.9375 97.875 C43.9475 97.545 42.9575 97.215 41.9375 96.875 C40.2890625 95.01953125 40.2890625 95.01953125 38.5625 92.6875 C36.44444389 89.86342519 34.31523197 87.1023254 32 84.4375 C29.9375 81.875 29.9375 81.875 29.9375 79.875 C28.9475 79.545 27.9575 79.215 26.9375 78.875 C26.60416667 77.54166667 26.27083333 76.20833333 25.9375 74.875 C24.4525 74.38 24.4525 74.38 22.9375 73.875 C21.60546875 72.40625 21.60546875 72.40625 20.125 70.375 C17.62096855 67.03087141 15.04327284 63.77339463 12.3671875 60.56640625 C11.41549683 59.42558594 11.41549683 59.42558594 10.44458008 58.26171875 C9.15348034 56.71855873 7.85906802 55.17816388 6.5612793 53.640625 C5.66662964 52.56748047 5.66662964 52.56748047 4.75390625 51.47265625 C4.21193604 50.82820557 3.66996582 50.18375488 3.11157227 49.51977539 C1.9375 47.875 1.9375 47.875 1.9375 45.875 C0.4525 45.38 0.4525 45.38 -1.0625 44.875 C-2.67062665 43.14273725 -4.20447316 41.3404991 -5.6875 39.5 C-6.48414062 38.52289063 -7.28078125 37.54578125 -8.1015625 36.5390625 C-10.0625 33.875 -10.0625 33.875 -11.0625 30.875 C-11.701875 30.565625 -12.34125 30.25625 -13 29.9375 C-15.0625 28.875 -15.0625 28.875 -16 26.875 C-17.4677561 24.11216499 -19.18880058 23.92635345 -22.0625 22.875 C-22.50207031 22.42125 -22.94164063 21.9675 -23.39453125 21.5 C-40.37117367 4.96069497 -77.18294785 8.71645546 -99.0625 7.875 C-99.0625 6.225 -99.0625 4.575 -99.0625 2.875 C-70.47852088 -10.0812896 -27.6072972 -19.15608377 0 0 Z " fill="#F9C843" transform="translate(112.0625,100.125)"/>
<path d="M0 0 C2.84930227 1.33109993 4.34803885 3.15424591 6.39453125 5.53515625 C7.18214844 6.44136719 7.96976563 7.34757812 8.78125 8.28125 C9.54050781 9.16941406 10.29976562 10.05757812 11.08203125 10.97265625 C12.28900235 12.34885217 13.49720437 13.7239702 14.70703125 15.09765625 C15.53267578 16.04898437 15.53267578 16.04898437 16.375 17.01953125 C17.5949565 18.41536249 18.82828785 19.79954962 20.0703125 21.17578125 C20.71355469 21.8925 21.35679688 22.60921875 22.01953125 23.34765625 C22.89931641 24.31832031 22.89931641 24.31832031 23.796875 25.30859375 C25.08203125 26.97265625 25.08203125 26.97265625 25.08203125 28.97265625 C25.74203125 28.97265625 26.40203125 28.97265625 27.08203125 28.97265625 C28.421875 30.484375 28.421875 30.484375 30.01953125 32.66015625 C33.65612111 37.49866988 37.53967233 42.07804236 41.52514648 46.62963867 C45.08203125 50.7560229 45.08203125 50.7560229 45.08203125 52.97265625 C46.56703125 53.46765625 46.56703125 53.46765625 48.08203125 53.97265625 C49.52005307 55.56372055 50.8852846 57.22125775 52.20703125 58.91015625 C56.63111451 64.46023771 61.28459788 69.74424778 66.08203125 74.97265625 C65.29828125 75.57078125 64.51453125 76.16890625 63.70703125 76.78515625 C60.93628802 78.88350874 60.93628802 78.88350874 59.08203125 81.97265625 C58.33373047 81.55693359 58.33373047 81.55693359 57.5703125 81.1328125 C54.23423541 79.5773731 50.77692928 78.50156265 47.26953125 77.41015625 C46.58310547 77.18908203 45.89667969 76.96800781 45.18945312 76.74023438 C31.54256682 72.46670612 17.68331744 73.69813446 3.70703125 75.66015625 C2.42223877 75.83442139 1.13744629 76.00868652 -0.1862793 76.18823242 C-9.82364811 77.54782912 -19.32862719 79.3346995 -28.81982422 81.48510742 C-30.20838623 81.79798706 -30.20838623 81.79798706 -31.625 82.1171875 C-32.43428955 82.30643799 -33.2435791 82.49568848 -34.07739258 82.69067383 C-34.68478271 82.78372803 -35.29217285 82.87678223 -35.91796875 82.97265625 C-36.24796875 82.64265625 -36.57796875 82.31265625 -36.91796875 81.97265625 C-36.45244978 75.64780522 -35.27704407 69.76520378 -33.60546875 63.66015625 C-33.27107788 62.41903076 -33.27107788 62.41903076 -32.92993164 61.15283203 C-30.28058914 51.45024176 -27.25410565 42.0600921 -22.91796875 32.97265625 C-22.53382812 32.11800781 -22.1496875 31.26335938 -21.75390625 30.3828125 C-18.60710701 23.67516149 -14.83192797 17.57156599 -10.73046875 11.41015625 C-10.20710938 10.62390869 -9.68375 9.83766113 -9.14453125 9.02758789 C-3.00881892 -0.04289559 -3.00881892 -0.04289559 0 0 Z " fill="#EBDBAD" transform="translate(52.91796875,12.02734375)"/>
<path d="M0 0 C0.64324219 0.45890625 1.28648437 0.9178125 1.94921875 1.390625 C23.24744861 15.85276111 46.09397538 10.80915163 69.98583984 7.3671875 C73 7 73 7 77 7 C78.26851216 11.31294136 77.92337397 13.9366083 76 18 C73.2265625 19.65234375 73.2265625 19.65234375 69.625 20.9375 C68.97958252 21.1742041 68.33416504 21.4109082 67.66918945 21.65478516 C65.45373594 22.4596006 63.22729757 23.22860788 61 24 C59.20902637 24.64283694 57.41868434 25.28743568 55.62890625 25.93359375 C52.10460741 27.1948787 48.57876063 28.45094945 45.04296875 29.6796875 C44.31102295 29.93476074 43.57907715 30.18983398 42.82495117 30.45263672 C41 31 41 31 39 31 C39 31.66 39 32.32 39 33 C40.155 32.5875 41.31 32.175 42.5 31.75 C52.73249049 28.33916984 63.39605556 25.93725908 74 24 C75.45882531 28.56318027 73.97532405 32.01266627 72.4375 36.375 C72.15793457 37.18155029 71.87836914 37.98810059 71.59033203 38.8190918 C63.92838925 60.59548011 53.44393878 80.60851128 37 97 C37.01160156 96.08412109 37.02320313 95.16824219 37.03515625 94.22460938 C37.79327696 71.0336096 37.79327696 71.0336096 29.37158203 50.05859375 C27.69769471 47.54627301 26.19472241 44.95712887 24.68359375 42.34375 C21.51247119 36.8607568 18.27073598 31.42398469 15 26 C14.4831665 25.10176514 13.96633301 24.20353027 13.43383789 23.27807617 C11.85847057 20.77513859 10.9323431 20.11585473 8.25 19 C3.1126059 16.63983186 -1.79097813 14.36547757 -4.4375 9.1875 C-4.7159375 8.1046875 -4.7159375 8.1046875 -5 7 C-4.45730469 7.42152344 -3.91460937 7.84304687 -3.35546875 8.27734375 C-2.64003906 8.82519531 -1.92460937 9.37304688 -1.1875 9.9375 C-0.47980469 10.48277344 0.22789062 11.02804688 0.95703125 11.58984375 C3.04125052 13.16856248 3.04125052 13.16856248 6 14 C5.401875 13.29875 4.80375 12.5975 4.1875 11.875 C1.99673543 8.99570943 0.38049924 6.34226132 -1 3 C-0.67 2.01 -0.34 1.02 0 0 Z " fill="#EADBAE" transform="translate(155,138)"/>
<path d="M0 0 C5.22253181 1.3934304 10.17493897 2.98865963 15.0625 5.3125 C27.85451988 11.25101133 40.21677903 14.64729363 54.14355469 16.59619141 C59.94077347 17.41572986 65.72242414 18.30184775 71.5 19.25 C72.68835449 19.41830322 73.87670898 19.58660645 75.10107422 19.76000977 C83.21260438 21.1283968 83.21260438 21.1283968 85.40625 23.55664062 C86.21875 25.359375 86.21875 25.359375 87 29 C87.22558594 29.84949219 87.45117188 30.69898438 87.68359375 31.57421875 C88.04524111 34.34684852 88.09617956 37.01709619 88.0625 39.8125 C88.05347656 40.78832031 88.04445313 41.76414063 88.03515625 42.76953125 C88.02355469 43.50558594 88.01195313 44.24164063 88 45 C81.48179053 44.3528019 75.11962157 43.35016601 68.6875 42.125 C61.51536199 40.7891908 54.34370658 39.55527237 47.125 38.5 C46.32908447 38.37923096 45.53316895 38.25846191 44.71313477 38.1340332 C40.02354058 37.42517889 35.33192498 36.79047037 30.625 36.20703125 C28.45821377 35.90972427 26.29154498 35.61155994 24.125 35.3125 C23.10809082 35.20035156 22.09118164 35.08820313 21.04345703 34.97265625 C15.85524208 34.22066536 12.7750648 33.46569118 9.51171875 29.203125 C8.64183867 27.82211214 7.80135866 26.42186925 7 25 C6.38511719 24.02933594 5.77023438 23.05867188 5.13671875 22.05859375 C0.94677929 14.48056308 -0.17710573 8.67818079 0 0 Z " fill="#3FA3CB" transform="translate(13,153)"/>
<path d="M0 0 C2.84930227 1.33109993 4.34803885 3.15424591 6.39453125 5.53515625 C7.18214844 6.44136719 7.96976563 7.34757812 8.78125 8.28125 C9.54050781 9.16941406 10.29976562 10.05757812 11.08203125 10.97265625 C12.28900235 12.34885217 13.49720437 13.7239702 14.70703125 15.09765625 C15.53267578 16.04898437 15.53267578 16.04898437 16.375 17.01953125 C17.5949565 18.41536249 18.82828785 19.79954962 20.0703125 21.17578125 C20.71355469 21.8925 21.35679688 22.60921875 22.01953125 23.34765625 C22.89931641 24.31832031 22.89931641 24.31832031 23.796875 25.30859375 C25.08203125 26.97265625 25.08203125 26.97265625 25.08203125 28.97265625 C25.74203125 28.97265625 26.40203125 28.97265625 27.08203125 28.97265625 C28.421875 30.484375 28.421875 30.484375 30.01953125 32.66015625 C32.25774141 35.64285581 34.54481849 38.5438395 36.98828125 41.359375 C37.48851807 41.9366333 37.98875488 42.5138916 38.50415039 43.10864258 C39.50559447 44.25787509 40.51251897 45.40235736 41.52514648 46.54174805 C45.08203125 50.64326331 45.08203125 50.64326331 45.08203125 53.97265625 C9.2613491 55.98871335 9.2613491 55.98871335 -6.12426758 45.14916992 C-8.90684654 43.32403748 -11.82979107 42.20499319 -14.91796875 40.97265625 C-17.60824455 39.6814966 -20.25791792 38.32601544 -22.91796875 36.97265625 C-22.91796875 25.25088118 -10.97995452 9.77973324 -3.36865234 1.23291016 C-1.91796875 -0.02734375 -1.91796875 -0.02734375 0 0 Z " fill="#F9C841" transform="translate(52.91796875,12.02734375)"/>
<path d="M0 0 C6.25941774 0.06463419 12.19315154 0.95709648 18.3203125 2.1875 C19.94477295 2.51210205 19.94477295 2.51210205 21.60205078 2.84326172 C31.805741 5.0454209 43.79665237 8.36605929 51.1953125 16.1875 C51.95585938 16.62320313 52.71640625 17.05890625 53.5 17.5078125 C56.90846636 19.63192922 59.51277733 22.21295682 62.3203125 25.0625 C62.84496094 25.57941406 63.36960937 26.09632813 63.91015625 26.62890625 C66.87474048 29.60850104 69.16952064 32.46717784 71.1953125 36.1875 C72.0615625 37.486875 72.0615625 37.486875 72.9453125 38.8125 C73.3578125 39.59625 73.7703125 40.38 74.1953125 41.1875 C73.8653125 42.1775 73.5353125 43.1675 73.1953125 44.1875 C65.0250602 42.4568597 56.85843861 40.7100691 48.69580078 38.94384766 C46.59583742 38.49011028 44.4954018 38.0385387 42.39404297 37.59130859 C34.36578742 35.87686564 26.76944513 33.91252617 19.23828125 30.546875 C15.6581372 28.94752952 12.0294542 27.5019402 8.3828125 26.0625 C5.9841528 25.11126303 3.58822358 24.1531069 1.1953125 23.1875 C0.5451416 22.97770508 -0.1050293 22.76791016 -0.77490234 22.55175781 C-2.69140625 21.8828125 -2.69140625 21.8828125 -5.8046875 20.1875 C-7.2781041 15.95292464 -6.8041324 11.80255791 -6.4296875 7.375 C-6.33945313 6.23417969 -6.24921875 5.09335938 -6.15625 3.91796875 C-5.58047417 -0.55389022 -4.15335029 0.02974647 0 0 Z " fill="#EBDCAE" transform="translate(19.8046875,126.8125)"/>
<path d="M0 0 C2.44482481 2.38519493 3.88187823 4.56013685 5.5625 7.5 C-18.5375 17.5 -18.5375 17.5 -24.4375 17.5 C-24.7675 18.16 -25.0975 18.82 -25.4375 19.5 C-26.10910156 19.11328125 -26.78070313 18.7265625 -27.47265625 18.328125 C-49.08932709 7.05956368 -75.65373221 8.41468879 -99.4375 7.5 C-99.4375 5.85 -99.4375 4.2 -99.4375 2.5 C-71.68702439 -10.07848661 -26.35115499 -20.48818407 0 0 Z " fill="#6FCA90" transform="translate(112.4375,100.5)"/>
<path d="M0 0 C0.66 0 1.32 0 2 0 C2.81832722 1.89332534 3.62942268 3.78977733 4.4375 5.6875 C4.88996094 6.74324219 5.34242188 7.79898438 5.80859375 8.88671875 C7.63172276 13.65076406 8.12375898 17.72800459 8.0625 22.8125 C8.05347656 23.78832031 8.04445313 24.76414062 8.03515625 25.76953125 C8.02355469 26.50558594 8.01195312 27.24164063 8 28 C3.53229358 29.63533454 -0.71511044 30.51215576 -5.42578125 31.1484375 C-6.86902095 31.34848498 -8.312216 31.54885476 -9.75537109 31.74951172 C-10.50067078 31.85132751 -11.24597046 31.95314331 -12.01385498 32.05804443 C-37.40266183 35.55885625 -55.17038965 40.06345332 -74.58642578 57.80419922 C-76 59 -76 59 -78 60 C-78.66 59.67 -79.32 59.34 -80 59 C-80.8103483 49.35299645 -80.89282855 43.42279674 -74.53125 35.66015625 C-74.0259375 35.11230469 -73.520625 34.56445312 -73 34 C-72.67 34.66 -72.34 35.32 -72 36 C-72.77734375 37.7265625 -72.77734375 37.7265625 -73.9375 39.625 C-74.618125 40.73875 -75.29875 41.8525 -76 43 C-71.60540244 37.55694516 -67.26812302 32.11081074 -63.2265625 26.3984375 C-62.82179687 25.93695313 -62.41703125 25.47546875 -62 25 C-61.34 25 -60.68 25 -60 25 C-59.7539502 24.22116455 -59.50790039 23.4423291 -59.25439453 22.63989258 C-57.38950823 18.71521069 -55.17217548 18.20603889 -51.21386719 16.79052734 C-44.62921326 15.17087455 -37.87272572 15.07197137 -31.125 14.8125 C-28.87922772 14.71144989 -26.63377525 14.60546662 -24.38839722 14.49601746 C-22.36756712 14.3997592 -20.34613781 14.31633177 -18.32470703 14.23364258 C-12.82710251 13.91693979 -12.82710251 13.91693979 -8.7109375 10.56640625 C-7.55464844 9.07947266 -7.55464844 9.07947266 -6.375 7.5625 C-2.04242424 2.04242424 -2.04242424 2.04242424 0 0 Z " fill="#71CC91" transform="translate(230,75)"/>
<path d="M0 0 C8.64228691 5.65426218 15.66631168 13.57893844 20 23 C19.60159786 26.39328722 18.09860824 28.56173973 16.0625 31.25 C15.53785156 31.95640625 15.01320312 32.6628125 14.47265625 33.390625 C13.98667969 33.92171875 13.50070313 34.4528125 13 35 C12.34 35 11.68 35 11 35 C10.7525 35.598125 10.505 36.19625 10.25 36.8125 C8.78477848 39.37663767 7.52622797 40.48426322 5 42 C1.52515171 42.86107322 -1.74418858 43.13147517 -5.31640625 43.17578125 C-21.08431573 43.35949481 -21.08431573 43.35949481 -36 48 C-31.58189649 33.89966965 -31.58189649 33.89966965 -27.7265625 31.70703125 C-24.42107618 29.63755056 -22.18780492 27.04662618 -19.75 24.0625 C-19.27763916 23.49635986 -18.80527832 22.93021973 -18.31860352 22.34692383 C-14.26202229 17.43833124 -10.48153385 12.34579686 -6.77734375 7.16796875 C-6.19082031 6.45253906 -5.60429687 5.73710938 -5 5 C-4.34 5 -3.68 5 -3 5 C-2.690625 4.360625 -2.38125 3.72125 -2.0625 3.0625 C-1 1 -1 1 0 0 Z " fill="#40A2C9" transform="translate(208,41)"/>
<path d="M0 0 C7.55987091 -0.19905483 14.87372357 0.41172789 22.375 1.3125 C24.74469977 1.58803106 27.11449498 1.86274233 29.484375 2.13671875 C31.31838867 2.35013916 31.31838867 2.35013916 33.18945312 2.56787109 C37.10842807 3.01229611 41.02982751 3.42806764 44.953125 3.83203125 C46.87825928 4.03155396 46.87825928 4.03155396 48.84228516 4.23510742 C51.33644297 4.49218565 53.83090596 4.74632251 56.32568359 4.99731445 C57.44797363 5.11421631 58.57026367 5.23111816 59.7265625 5.3515625 C60.72252441 5.45291504 61.71848633 5.55426758 62.74462891 5.65869141 C65 6 65 6 66 7 C65.93502844 9.47482588 65.80837471 11.90861017 65.625 14.375 C65.58117187 15.06078125 65.53734375 15.7465625 65.4921875 16.453125 C65.27910604 19.49545473 64.96876265 22.09371204 64 25 C43.0980316 24.15032649 20.77292213 19.13168731 4 6 C3.26652344 5.51144531 2.53304687 5.02289063 1.77734375 4.51953125 C1.19082031 4.01808594 0.60429688 3.51664063 0 3 C0 2.01 0 1.02 0 0 Z " fill="#3EA1CC" transform="translate(35,195)"/>
<path d="M0 0 C13.90443686 9.26962457 13.90443686 9.26962457 16 12 C16.33052566 15.63578221 15.93408453 17.6713187 13.81640625 20.68359375 C12.82719321 21.84437762 11.80673875 22.97903556 10.76171875 24.08984375 C8.09396938 26.98237023 5.78969229 30.14122366 3.41796875 33.27734375 C2.95003906 33.84582031 2.48210937 34.41429687 2 35 C1.67 35 1.34 35 1 35 C0.505 17.675 0.505 17.675 0 0 Z " fill="#40A4CA" transform="translate(185,23)"/>
<path d="M0 0 C0.81832722 1.89332534 1.62942268 3.78977733 2.4375 5.6875 C3.11619141 7.27111328 3.11619141 7.27111328 3.80859375 8.88671875 C5.61409118 13.60469072 6.13861167 17.71368377 6.125 22.75 C6.12886719 24.19632813 6.12886719 24.19632813 6.1328125 25.671875 C6 28 6 28 5 29 C3.33382885 29.04063832 1.66611905 29.042721 0 29 C-0.38671875 28.20335938 -0.7734375 27.40671875 -1.171875 26.5859375 C-3.83999555 21.15723678 -6.45491856 15.9085743 -10 11 C-8.64763423 8.06120516 -7.10057341 5.70767089 -5 3.25 C-4.484375 2.63640625 -3.96875 2.0228125 -3.4375 1.390625 C-2 0 -2 0 0 0 Z " fill="#E9DCAF" transform="translate(232,75)"/>
<path d="M0 0 C7.55987091 -0.19905483 14.87372357 0.41172789 22.375 1.3125 C24.74469977 1.58803106 27.11449498 1.86274233 29.484375 2.13671875 C31.31838867 2.35013916 31.31838867 2.35013916 33.18945312 2.56787109 C37.10842807 3.01229611 41.02982751 3.42806764 44.953125 3.83203125 C46.87825928 4.03155396 46.87825928 4.03155396 48.84228516 4.23510742 C51.33644297 4.49218565 53.83090596 4.74632251 56.32568359 4.99731445 C57.44797363 5.11421631 58.57026367 5.23111816 59.7265625 5.3515625 C60.72252441 5.45291504 61.71848633 5.55426758 62.74462891 5.65869141 C65 6 65 6 66 7 C65.93502844 9.47482588 65.80837471 11.90861017 65.625 14.375 C65.58117187 15.06078125 65.53734375 15.7465625 65.4921875 16.453125 C65.27910604 19.49545473 64.96876265 22.09371204 64 25 C63.01 25 62.02 25 61 25 C61.495 23.515 61.495 23.515 62 22 C62.22451458 19.77425665 62.40782878 17.54418481 62.5625 15.3125 C62.64628906 14.13300781 62.73007813 12.95351562 62.81640625 11.73828125 C62.90728516 10.38283203 62.90728516 10.38283203 63 9 C53.50767255 7.91052652 44.01366299 6.88589479 34.5 6 C24.98633701 5.11410521 15.49232745 4.08947348 6 3 C6 3.66 6 4.32 6 5 C6.66 5 7.32 5 8 5 C8 5.66 8 6.32 8 7 C9.98 7.66 11.96 8.32 14 9 C14 9.66 14 10.32 14 11 C14.66 11 15.32 11 16 11 C15.67 11.66 15.34 12.32 15 13 C3.28559393 6.17607414 3.28559393 6.17607414 0 3 C0 2.01 0 1.02 0 0 Z " fill="#39AFD8" transform="translate(35,195)"/>
<path d="M0 0 C3.2500454 2.16669693 4.1296594 3.6489731 6 7 C6.5775 7.86625 7.155 8.7325 7.75 9.625 C8.1625 10.40875 8.575 11.1925 9 12 C8.67 12.99 8.34 13.98 8 15 C4.06683202 14.16601461 0.13415074 13.32977512 -3.7980957 12.49145508 C-5.13552923 12.20665679 -6.47309354 11.92247193 -7.81079102 11.63891602 C-9.73488182 11.23094875 -11.65846363 10.82058327 -13.58203125 10.41015625 C-15.31803589 10.04096069 -15.31803589 10.04096069 -17.08911133 9.66430664 C-20 9 -20 9 -23 8 C-23 7.34 -23 6.68 -23 6 C-22.3387915 5.85377197 -21.67758301 5.70754395 -20.99633789 5.55688477 C-18.01753377 4.89588968 -15.04001597 4.22927255 -12.0625 3.5625 C-11.02158203 3.33240234 -9.98066406 3.10230469 -8.90820312 2.86523438 C-7.91884766 2.64287109 -6.92949219 2.42050781 -5.91015625 2.19140625 C-4.99371338 1.98717041 -4.07727051 1.78293457 -3.13305664 1.57250977 C-1.03263495 1.19918053 -1.03263495 1.19918053 0 0 Z " fill="#F9C641" transform="translate(85,156)"/>
<path d="M0 0 C18.69129129 0.79200387 38.65313157 6.91791332 51.80859375 20.92578125 C53.25029502 22.58723375 54.64614618 24.26665685 56 26 C52.49375738 25.44440695 51.2618793 24.45859017 49.1875 21.625 C46.21775071 17.96131432 43.46003144 16.64316948 39 15 C36.6203121 13.7357908 34.31988073 12.37299064 32 11 C32 10.34 32 9.68 32 9 C30.77925781 8.75765625 29.55851562 8.5153125 28.30078125 8.265625 C18.67358446 6.31804515 9.31804791 4.14505028 0 1 C0 0.67 0 0.34 0 0 Z " fill="#EDEBD0" transform="translate(27,128)"/>
<path d="M0 0 C2.475 2.475 2.475 2.475 5 5 C3.9790625 4.7834375 3.9790625 4.7834375 2.9375 4.5625 C-4.49062747 5.66881686 -9.50800194 15.08453682 -13.85717773 20.71191406 C-17.69562205 25.67015414 -21.74549007 30.39196346 -26 35 C-27.32 34.34 -28.64 33.68 -30 33 C-29.28328125 32.62746094 -28.5665625 32.25492188 -27.828125 31.87109375 C-24.53448086 29.69201151 -22.22234992 27.08891285 -19.75 24.0625 C-19.27763916 23.49635986 -18.80527832 22.93021973 -18.31860352 22.34692383 C-14.26202229 17.43833124 -10.48153385 12.34579686 -6.77734375 7.16796875 C-6.19082031 6.45253906 -5.60429687 5.73710938 -5 5 C-4.34 5 -3.68 5 -3 5 C-2.690625 4.360625 -2.38125 3.72125 -2.0625 3.0625 C-1 1 -1 1 0 0 Z " fill="#33B1DA" transform="translate(208,41)"/>
<path d="M0 0 C6.81871144 0.71701914 13.6013392 1.56121703 20.375 2.625 C21.35855469 2.75261719 22.34210938 2.88023437 23.35546875 3.01171875 C26.08167501 3.45551977 28.4565651 3.92079287 31 5 C33.1015625 8.3359375 33.1015625 8.3359375 34 12 C34.22558594 12.84949219 34.45117188 13.69898438 34.68359375 14.57421875 C35.04524111 17.34684852 35.09617956 20.01709619 35.0625 22.8125 C35.05347656 23.78832031 35.04445312 24.76414063 35.03515625 25.76953125 C35.02355469 26.50558594 35.01195312 27.24164063 35 28 C34.34 28 33.68 28 33 28 C32.95101562 27.14277344 32.90203125 26.28554687 32.8515625 25.40234375 C32.45465756 19.33243544 32.00791601 13.75602589 30 8 C29.18015625 7.86722656 28.3603125 7.73445312 27.515625 7.59765625 C26.43796875 7.42105469 25.3603125 7.24445313 24.25 7.0625 C23.18265625 6.88847656 22.1153125 6.71445313 21.015625 6.53515625 C18.6280026 6.11144606 16.34397571 5.60375132 14 5 C11.58473907 4.47268625 9.16793143 3.95242984 6.75 3.4375 C5.48671875 3.16808594 4.2234375 2.89867187 2.921875 2.62109375 C1.95765625 2.41613281 0.9934375 2.21117187 0 2 C0 1.34 0 0.68 0 0 Z " fill="#39B3D9" transform="translate(66,170)"/>
<path d="M0 0 C13.37541562 -0.55645026 26.63455028 0.20742878 38 8 C38 8.99 38 9.98 38 11 C37.48695312 10.7215625 36.97390625 10.443125 36.4453125 10.15625 C24.86018391 4.67829782 12.64084553 2.98025075 0 2 C0 1.34 0 0.68 0 0 Z " fill="#EEEAC8" transform="translate(74,83)"/>
<path d="M0 0 C5.22253181 1.3934304 10.17493897 2.98865963 15.0625 5.3125 C19.90811031 7.59319498 24.8303209 9.46828977 29.875 11.25 C30.96373413 11.637323 30.96373413 11.637323 32.07446289 12.0324707 C35.69395774 13.29297668 39.20514266 14.37496467 43 15 C42.67 15.66 42.34 16.32 42 17 C38.01076459 16.35657493 34.35063458 15.13503477 30.546875 13.8203125 C26.87370362 12.63723583 23.13472806 11.74164432 19.3828125 10.84375 C16.80277022 9.93016126 15.89294193 8.89797635 14 7 C11.76656052 6.28866168 11.76656052 6.28866168 9.375 5.9375 C6.9609375 5.52734375 6.9609375 5.52734375 5 5 C4.67 4.34 4.34 3.68 4 3 C1.97536745 2.34786708 1.97536745 2.34786708 0 2 C0 1.34 0 0.68 0 0 Z " fill="#2EB2DD" transform="translate(13,153)"/>
<path d="M0 0 C0.66 0.33 1.32 0.66 2 1 C0.1812287 11.87265483 -5.82507175 21.78565711 -11.1875 31.25 C-11.97217651 32.64412109 -11.97217651 32.64412109 -12.77270508 34.06640625 C-13.27439209 34.93652344 -13.7760791 35.80664062 -14.29296875 36.703125 C-14.7418042 37.48333008 -15.19063965 38.26353516 -15.65307617 39.06738281 C-17 41 -17 41 -20 43 C-20 42.01 -20 41.02 -20 40 C-19.34 40 -18.68 40 -18 40 C-17.71125 39.0925 -17.4225 38.185 -17.125 37.25 C-16.23468224 34.67797092 -15.28505587 32.38653234 -14 30 C-13.34 30 -12.68 30 -12 30 C-11.90589844 29.49210937 -11.81179687 28.98421875 -11.71484375 28.4609375 C-10.71135356 25.00629914 -9.12309201 21.85424945 -7.5625 18.625 C-5.39841009 14.14511077 -3.46951757 9.77039371 -2 5 C-1.34 5 -0.68 5 0 5 C0 3.35 0 1.7 0 0 Z " fill="#E3ECCA" transform="translate(223,178)"/>
<path d="M0 0 C0.66 0.33 1.32 0.66 2 1 C2 1.99 2 2.98 2 4 C3.30535849 7.58973586 4.66246653 8.38180196 8 10 C11 13.42857143 11 13.42857143 11 16 C11.58265625 16.24878906 12.1653125 16.49757813 12.765625 16.75390625 C15.31507622 18.17571559 16.83616159 19.74149311 18.75 21.9375 C19.67039063 22.97197266 19.67039063 22.97197266 20.609375 24.02734375 C22 26 22 26 22 29 C21.01 28.67 20.02 28.34 19 28 C18.33333333 26.66666667 17.66666667 25.33333333 17 24 C16.13375 23.13375 15.2675 22.2675 14.375 21.375 C13.59125 20.59125 12.8075 19.8075 12 19 C12 18.34 12 17.68 12 17 C11.443125 16.773125 10.88625 16.54625 10.3125 16.3125 C7.3530491 14.63281165 5.33873216 12.45866715 3 10 C2.1028125 9.1646875 2.1028125 9.1646875 1.1875 8.3125 C0 7 0 7 0 5 C-0.66 5 -1.32 5 -2 5 C-1.125 1.125 -1.125 1.125 0 0 Z " fill="#FADA51" transform="translate(114,90)"/>
<path d="M0 0 C-6.75 4 -6.75 4 -9 4 C-9.0825 4.5775 -9.165 5.155 -9.25 5.75 C-10.21882066 8.65646199 -11.81759419 9.84806408 -14 12 C-15.53968159 13.83854526 -17.0597742 15.69362782 -18.5625 17.5625 C-23.25780792 23.39798387 -23.25780792 23.39798387 -26 26 C-25.58859464 20.75207312 -22.75199817 17.62270041 -19.5625 13.6875 C-18.80743164 12.71973633 -18.80743164 12.71973633 -18.03710938 11.73242188 C-16.7449549 10.11079374 -15.37767875 8.54962648 -14 7 C-13.34 7 -12.68 7 -12 7 C-11.79375 6.236875 -11.5875 5.47375 -11.375 4.6875 C-9.06216214 0.16695327 -4.86288162 -2.05737299 0 0 Z " fill="#64DA93" transform="translate(182,93)"/>
<path d="M0 0 C0.81832722 1.89332534 1.62942268 3.78977733 2.4375 5.6875 C3.11619141 7.27111328 3.11619141 7.27111328 3.80859375 8.88671875 C5.61409118 13.60469072 6.13861167 17.71368377 6.125 22.75 C6.12886719 24.19632813 6.12886719 24.19632813 6.1328125 25.671875 C6 28 6 28 5 29 C3.33382885 29.04063832 1.66611905 29.042721 0 29 C0 28.34 0 27.68 0 27 C1.32 27 2.64 27 4 27 C3.76702642 18.70614048 3.42468446 12.13658784 -1 5 C-3.95508863 4.65629795 -3.95508863 4.65629795 -5.38671875 6.3125 C-5.81597656 6.869375 -6.24523437 7.42625 -6.6875 8 C-7.450625 8.99 -8.21375 9.98 -9 11 C-9 7.25983417 -8.0658409 6.54723807 -5.625 3.8125 C-4.99851563 3.09707031 -4.37203125 2.38164063 -3.7265625 1.64453125 C-2 0 -2 0 0 0 Z " fill="#EEEFCF" transform="translate(232,75)"/>
<path d="M0 0 C0.66 0 1.32 0 2 0 C0.81395894 8.66122093 -1.31164308 16.69526952 -4 25 C-4.52467866 26.8113906 -5.04585436 28.62380187 -5.5625 30.4375 C-6.6757635 34.18711828 -8.10155564 37.56471974 -10 41 C-10.66 40.67 -11.32 40.34 -12 40 C-12 39.34 -12 38.68 -12 38 C-11.34 38 -10.68 38 -10 38 C-9.731875 36.73285156 -9.46375 35.46570313 -9.1875 34.16015625 C-8.00793602 28.85315668 -6.52594886 23.65367668 -5 18.4375 C-3.21671676 12.31518848 -1.50415156 6.1973937 0 0 Z " fill="#F9DB3A" transform="translate(143,64)"/>
<path d="M0 0 C0.64324219 0.45890625 1.28648437 0.9178125 1.94921875 1.390625 C8.99905727 6.17767655 15.76274618 8.89157732 24 11 C24 11.33 24 11.66 24 12 C17.28583943 12.48830259 12.94106083 11.06913723 7 8 C6.34 7.67 5.68 7.34 5 7 C5.99 8.485 5.99 8.485 7 10 C6.625 12.1875 6.625 12.1875 6 14 C3.04948346 10.54077371 0.74144483 7.2161296 -1 3 C-0.67 2.01 -0.34 1.02 0 0 Z " fill="#EFFAE7" transform="translate(155,138)"/>
<path d="M0 0 C1.62527956 4.07375267 0.3886668 7.7980494 -0.625 11.875 C-0.80522705 12.62370361 -0.9854541 13.37240723 -1.17114258 14.14379883 C-2.69401043 20.25014325 -4.67796762 26.07771815 -6.94921875 31.94921875 C-7.99049826 34.97241316 -8.56850811 37.83730667 -9 41 C-9.66 41 -10.32 41 -11 41 C-10.53686046 34.97918592 -9.03090882 29.84345017 -7.04296875 24.15234375 C-5.70214614 20.09974507 -4.7212997 15.99603832 -3.7265625 11.84765625 C-2.69768216 7.81510912 -1.37443141 3.92694687 0 0 Z " fill="#F8DB3B" transform="translate(156,21)"/>
<path d="M0 0 C3.2500454 2.16669693 4.1296594 3.6489731 6 7 C6.5775 7.86625 7.155 8.7325 7.75 9.625 C8.1625 10.40875 8.575 11.1925 9 12 C8.67 12.99 8.34 13.98 8 15 C4.70587217 14.38753293 1.4152553 13.75791405 -1.875 13.125 C-2.81214844 12.95097656 -3.74929687 12.77695313 -4.71484375 12.59765625 C-5.61074219 12.42363281 -6.50664063 12.24960938 -7.4296875 12.0703125 C-8.25710449 11.91320801 -9.08452148 11.75610352 -9.93701172 11.59423828 C-12 11 -12 11 -14 9 C-7.10611082 8.70026569 0.15241063 9.10160709 6 13 C5.34 11.906875 4.68 10.81375 4 9.6875 C2.41535071 7.06292462 2 6.1743622 2 3 C-0.31 3 -2.62 3 -5 3 C-4.360625 2.690625 -3.72125 2.38125 -3.0625 2.0625 C-1.06389179 1.1654837 -1.06389179 1.1654837 0 0 Z " fill="#FADC4A" transform="translate(85,156)"/>
<path d="M0 0 C0.66 0.66 1.32 1.32 2 2 C-8.56 3.32 -19.12 4.64 -30 6 C-29.67 5.01 -29.34 4.02 -29 3 C-25.85591216 2.48860403 -22.70951427 1.99303964 -19.5625 1.5 C-18.68400391 1.35691406 -17.80550781 1.21382813 -16.90039062 1.06640625 C-11.19759229 0.18257773 -5.77279615 -0.3184991 0 0 Z " fill="#EDEABD" transform="translate(69,84)"/>
<path d="M0 0 C2.0625 2.25 2.0625 2.25 4 5 C3.65278123 8.38885521 2.08703831 10.57701543 0.0625 13.25 C-0.46214844 13.95640625 -0.98679688 14.6628125 -1.52734375 15.390625 C-2.01332031 15.92171875 -2.49929687 16.4528125 -3 17 C-3.66 17 -4.32 17 -5 17 C-5.2475 17.598125 -5.495 18.19625 -5.75 18.8125 C-7.16370012 21.28647521 -8.65055383 22.43370255 -11 24 C-11.66 23.67 -12.32 23.34 -13 23 C-12.34 22.38125 -11.68 21.7625 -11 21.125 C-2.79080563 13.47749025 -2.79080563 13.47749025 0.5 3.375 C0.335 2.26125 0.17 1.1475 0 0 Z " fill="#42B5D5" transform="translate(224,59)"/>
<path d="M0 0 C4.42639979 1.06742827 8.70389935 2.50095953 13 4 C13.64775391 4.22381348 14.29550781 4.44762695 14.96289062 4.67822266 C17.14688112 5.43884355 19.32373999 6.21755973 21.5 7 C22.21897461 7.24903076 22.93794922 7.49806152 23.67871094 7.75463867 C25.48700018 8.41532645 27.24907424 9.1995768 29 10 C29.33 10.99 29.66 11.98 30 13 C21.97160311 11.0561165 14.55651795 8.31671029 7 5 C5.58379074 4.39476192 4.16721193 3.79038653 2.75 3.1875 C1.8425 2.795625 0.935 2.40375 0 2 C0 1.34 0 0.68 0 0 Z " fill="#EDE9C7" transform="translate(14,145)"/>
<path d="M0 0 C3.04014355 1.94403737 6.03037568 3.94988021 9 6 C9.72316406 6.49113281 10.44632813 6.98226563 11.19140625 7.48828125 C13.06264713 8.89076684 14.58104586 10.14052088 16 12 C16.32260197 16.51642753 15.22069251 19.02869073 12.4375 22.4375 C11.633125 23.283125 10.82875 24.12875 10 25 C9.67 24.01 9.34 23.02 9 22 C9.474375 21.62875 9.94875 21.2575 10.4375 20.875 C12.52205802 18.37353038 12.64621491 16.18406582 13 13 C12.175 12.38125 11.35 11.7625 10.5 11.125 C9.675 10.42375 8.85 9.7225 8 9 C8 8.34 8 7.68 8 7 C5.34771188 5.92474806 2.71631546 4.90543849 0 4 C0 2.68 0 1.36 0 0 Z " fill="#35B2DA" transform="translate(185,23)"/>
<path d="M0 0 C3.92195331 3.87805085 7.73334438 7.84616417 11.5 11.875 C12.33337891 12.75478516 12.33337891 12.75478516 13.18359375 13.65234375 C16.83184231 17.55811574 19.97777014 21.59070197 23 26 C18.83730397 25.18359402 17.61128428 23.66183797 15.0625 20.25 C12.82910402 17.32779965 10.67386559 14.52912642 8 12 C7.34 11.34 6.68 10.68 6 10 C6 9.34 6 8.68 6 8 C5.01 7.67 4.02 7.34 3 7 C0 2.66666667 0 2.66666667 0 0 Z " fill="#FCDB37" transform="translate(54,13)"/>
<path d="M0 0 C10.16450249 0.65577435 17.98528889 3.72761739 26 10 C25.67 11.32 25.34 12.64 25 14 C23.2925002 12.71937515 21.62626404 11.38232443 20 10 C20 9.34 20 8.68 20 8 C19.154375 7.731875 18.30875 7.46375 17.4375 7.1875 C14 6 14 6 10.5625 4.5 C7.04617074 3.01944031 3.67884347 1.9760197 0 1 C0 0.67 0 0.34 0 0 Z " fill="#64DA9F" transform="translate(87,91)"/>
<path d="M0 0 C7.25038447 7.17270178 14.32958035 14.49437052 20 23 C16.79837298 22.40137646 16.08063485 22.08735442 13.75 19.5625 C12 17 12 17 12 15 C11.41605469 14.76023437 10.83210938 14.52046875 10.23046875 14.2734375 C7.55623396 12.74664146 6.1802277 11.06398497 4.3125 8.625 C3.71050781 7.85414062 3.10851562 7.08328125 2.48828125 6.2890625 C1.0764113 4.11752499 0.43308159 2.52919648 0 0 Z " fill="#EEEAC6" transform="translate(99,65)"/>
<path d="M0 0 C9.50684664 0.75451164 18.45797452 2.77320512 26 9 C26 9.66 26 10.32 26 11 C22.61066915 9.7019584 19.44688552 8.21336348 16.25 6.5 C11.53488434 4.09996365 7.19748049 2.92213364 2 2 C1.67 3.65 1.34 5.3 1 7 C0.01 6.67 -0.98 6.34 -2 6 C-1.34 4.02 -0.68 2.04 0 0 Z " fill="#FAE046" transform="translate(158,13)"/>
<path d="M0 0 C0.86355538 2.93608828 0.99158209 5.07014926 0.625 8.125 C-1.27633138 11.48889398 -2.08230533 11.69410178 -5.625 12.875 C-7.07708201 13.27352093 -8.53401486 13.65612694 -10 14 C-10 13.34 -10 12.68 -10 12 C-8.865625 11.62875 -7.73125 11.2575 -6.5625 10.875 C-4.6185869 10.13362127 -4.6185869 10.13362127 -3 9 C-1.94250443 5.91630113 -1.94250443 5.91630113 -2 3 C-3.670625 3.061875 -3.670625 3.061875 -5.375 3.125 C-9 3 -9 3 -11 1 C-7.26513121 0.4254048 -3.78706732 0 0 0 Z " fill="#ECEAC8" transform="translate(232,145)"/>
<path d="M0 0 C-0.14100857 2.27113803 -0.28796755 4.54190725 -0.4375 6.8125 C-0.51871094 8.07707031 -0.59992188 9.34164062 -0.68359375 10.64453125 C-1 14 -1 14 -2 17 C-2.99 17 -3.98 17 -5 17 C-4.67 16.01 -4.34 15.02 -4 14 C-3.77548542 11.77425665 -3.59217122 9.54418481 -3.4375 7.3125 C-3.35371094 6.13300781 -3.26992187 4.95351562 -3.18359375 3.73828125 C-3.12300781 2.83464844 -3.06242187 1.93101562 -3 1 C-3.99 0.67 -4.98 0.34 -6 0 C-3.50907189 -1.24546405 -2.58919267 -0.7767578 0 0 Z " fill="#36ADD3" transform="translate(101,203)"/>
<path d="M0 0 C-2.20029834 2.20029834 -3.5781256 2.68582609 -6.5 3.625 C-7.2940625 3.88539063 -8.088125 4.14578125 -8.90625 4.4140625 C-11 5 -11 5 -13 5 C-13 5.66 -13 6.32 -13 7 C-10.69 6.34 -8.38 5.68 -6 5 C-6 5.66 -6 6.32 -6 7 C-8.57213134 8.61949011 -9.67669159 9.04408751 -12.75 8.625 C-13.86375 8.315625 -13.86375 8.315625 -15 8 C-14.63481546 5.48075592 -14.41691257 4.32238586 -12.36328125 2.734375 C-8.06228667 0.6698976 -4.88780895 -0.48878089 0 0 Z " fill="#EBE8C0" transform="translate(207,164)"/>
<path d="M0 0 C2 1.8125 2 1.8125 4 4 C4 4.99 4 5.98 4 7 C-7.22 7 -18.44 7 -30 7 C-30 6.67 -30 6.34 -30 6 C-14.655 5.505 -14.655 5.505 1 5 C0.67 3.35 0.34 1.7 0 0 Z " fill="#F7D15B" transform="translate(94,59)"/>
<path d="M0 0 C0.33 0 0.66 0 1 0 C1 3.3 1 6.6 1 10 C1.99 10 2.98 10 4 10 C4.28875 9.360625 4.5775 8.72125 4.875 8.0625 C6 6 6 6 8 5 C7.68097587 10.26389811 4.60721435 13.44402449 1 17 C0.67 17 0.34 17 0 17 C0 11.39 0 5.78 0 0 Z " fill="#61BAB5" transform="translate(186,41)"/>
<path d="M0 0 C0.81404297 0.61488281 0.81404297 0.61488281 1.64453125 1.2421875 C2.35996094 1.78101563 3.07539063 2.31984375 3.8125 2.875 C4.52019531 3.40867188 5.22789062 3.94234375 5.95703125 4.4921875 C7.60456297 5.70814781 9.29624211 6.86416141 11 8 C11.99 7.67 12.98 7.34 14 7 C14.66 8.65 15.32 10.3 16 12 C10.06463221 11.70323161 6.18047976 9.00789115 2 5 C0.5 2.125 0.5 2.125 0 0 Z " fill="#F6EEC9" transform="translate(150,145)"/>
<path d="M0 0 C4.05860537 1.35286846 4.71215756 3.43365737 7 7 C7.90214204 8.09545819 8.81867633 9.17924087 9.75 10.25 C12 13 12 13 12 15 C13.32 14.67 14.64 14.34 16 14 C15.67 14.99 15.34 15.98 15 17 C12.08544718 16.65442662 11.05649617 16.05758055 8.96484375 13.92578125 C2.18230206 5.1829674 2.18230206 5.1829674 0 0 Z " fill="#FADE4A" transform="translate(175,221)"/>
<path d="M0 0 C0.33 0 0.66 0 1 0 C0.47458553 7.7498635 -1.55591476 14.6450086 -4 22 C-5.30470605 18.33981791 -4.68104523 15.82607372 -3.6875 12.125 C-3.40648438 11.07054688 -3.12546875 10.01609375 -2.8359375 8.9296875 C-1.97706649 5.91962554 -1.06333272 2.94461368 0 0 Z " fill="#ECECBB" transform="translate(24,60)"/>
<path d="M0 0 C4.92902944 0.5188452 9.02606314 2.1249434 13.53515625 4.0625 C16.01604155 5.00610138 18.388133 5.5530495 21 6 C21 6.33 21 6.66 21 7 C15.0964492 7.42934915 11.36683056 6.62652109 6.078125 3.97265625 C4.05810112 3.02719394 2.17529065 2.46543381 0 2 C0 1.34 0 0.68 0 0 Z " fill="#E9E9D1" transform="translate(158,143)"/>
<path d="M0 0 C14.78132118 -0.18451025 14.78132118 -0.18451025 21 1 C21 1.33 21 1.66 21 2 C13.82242235 3.01202288 7.18808741 2.88826175 0 2 C0 1.34 0 0.68 0 0 Z " fill="#E9E6BB" transform="translate(74,83)"/>
<path d="M0 0 C0.33 0.66 0.66 1.32 1 2 C0.360625 2.886875 -0.27875 3.77375 -0.9375 4.6875 C-2.8661978 7.78510556 -3.46120377 9.49782448 -4 13 C-4.63437344 14.6792238 -5.29289322 16.35008418 -6 18 C-6.33 18 -6.66 18 -7 18 C-7.92335528 10.87697358 -5.81834552 7.55432822 -1.53125 1.90625 C-1.0259375 1.2771875 -0.520625 0.648125 0 0 Z " fill="#D6DFB3" transform="translate(157,109)"/>
<path d="M0 0 C0.33 0.66 0.66 1.32 1 2 C-0.07421875 4.390625 -0.07421875 4.390625 -1.6875 7.25 C-2.24050781 8.23097656 -2.79351562 9.21195313 -3.36328125 10.22265625 C-5.13975212 13.23714501 -6.98891648 16.13807346 -9 19 C-9.73828125 17.34375 -9.73828125 17.34375 -10 15 C-8.41796875 12.34375 -8.41796875 12.34375 -6.1875 9.5 C-3.79536604 6.41774597 -1.59281395 3.5732969 0 0 Z " fill="#CADBA4" transform="translate(172,85)"/>
<path d="M0 0 C0.33 0.66 0.66 1.32 1 2 C1.94875 1.79375 2.8975 1.5875 3.875 1.375 C5.421875 1.189375 5.421875 1.189375 7 1 C7.66 1.66 8.32 2.32 9 3 C5.37 4.32 1.74 5.64 -2 7 C-1.34 4.69 -0.68 2.38 0 0 Z " fill="#44B8CA" transform="translate(174,82)"/>
<path d="M0 0 C3.66786393 1.50349377 5.68910393 3.63728792 8.25 6.625 C8.95640625 7.44226563 9.6628125 8.25953125 10.390625 9.1015625 C10.92171875 9.72804687 11.4528125 10.35453125 12 11 C11.67 11.66 11.34 12.32 11 13 C6.88981036 9.64026633 3.05359558 6.39717763 0 2 C0 1.34 0 0.68 0 0 Z " fill="#F3F2C5" transform="translate(132,125)"/>
<path d="M0 0 C3.67056937 1.47797262 5.41085783 3.47615477 7.75 6.625 C8.67039063 7.85089844 8.67039063 7.85089844 9.609375 9.1015625 C10.29773438 10.04128906 10.29773438 10.04128906 11 11 C10.67 11.66 10.34 12.32 10 13 C6.40523299 9.50794062 3.07973809 5.95966325 0 2 C0 1.34 0 0.68 0 0 Z " fill="#43B4D9" transform="translate(213,46)"/>
<path d="M0 0 C0.66 0 1.32 0 2 0 C0.43632643 3.52238047 -1.69495889 6.27123994 -4.125 9.25 C-4.84945312 10.14203125 -5.57390625 11.0340625 -6.3203125 11.953125 C-6.87460938 12.62859375 -7.42890625 13.3040625 -8 14 C-8.33 13.01 -8.66 12.02 -9 11 C-8.43410156 10.37351563 -7.86820313 9.74703125 -7.28515625 9.1015625 C-6.18494141 7.87566406 -6.18494141 7.87566406 -5.0625 6.625 C-4.33160156 5.81289062 -3.60070312 5.00078125 -2.84765625 4.1640625 C-0.97010529 2.14075833 -0.97010529 2.14075833 0 0 Z " fill="#E5ECCB" transform="translate(201,221)"/>
<path d="M0 0 C5.4304292 -0.41772532 10.05716947 0.84492589 15 3 C15.66 3.66 16.32 4.32 17 5 C10.80481527 4.58411954 5.73310689 3.39748106 0 1 C0 0.67 0 0.34 0 0 Z " fill="#EBECCB" transform="translate(44,158)"/>
<path d="M0 0 C5.50102837 0.41257713 9.76201664 2.54722675 14 6 C14 6.66 14 7.32 14 8 C9.02790438 6.23570801 4.56561939 3.6060834 0 1 C0 0.67 0 0.34 0 0 Z " fill="#FCDF56" transform="translate(170,16)"/>
<path d="M0 0 C-0.33 1.32 -0.66 2.64 -1 4 C-2.36125 3.9690625 -2.36125 3.9690625 -3.75 3.9375 C-6.86712481 3.86248264 -6.86712481 3.86248264 -9.25 4.625 C-9.8275 4.74875 -10.405 4.8725 -11 5 C-11.66 4.34 -12.32 3.68 -13 3 C-11.2092015 2.49689942 -9.41733089 1.99761372 -7.625 1.5 C-6.62726563 1.2215625 -5.62953125 0.943125 -4.6015625 0.65625 C-2 0 -2 0 0 0 Z " fill="#E6E3BF" transform="translate(228,162)"/>
<path d="M0 0 C0.66 0.33 1.32 0.66 2 1 C1.33501617 5.38889325 -0.18757677 8.9811485 -2 13 C-2.66 13 -3.32 13 -4 13 C-3.34 10.36 -2.68 7.72 -2 5 C-1.34 5 -0.68 5 0 5 C0 3.35 0 1.7 0 0 Z " fill="#E3E5BC" transform="translate(223,178)"/>
<path d="M0 0 C3.87511727 0.54984772 5.59576506 2.27555331 8.25 5.0625 C8.95640625 5.79597656 9.6628125 6.52945313 10.390625 7.28515625 C10.92171875 7.85105469 11.4528125 8.41695312 12 9 C11.01 9.33 10.02 9.66 9 10 C8.51789063 9.44570312 8.03578125 8.89140625 7.5390625 8.3203125 C6.90742187 7.59585938 6.27578125 6.87140625 5.625 6.125 C4.99851562 5.40570313 4.37203125 4.68640625 3.7265625 3.9453125 C2.52573166 2.5923402 1.2791655 1.2791655 0 0 Z " fill="#F3F3DB" transform="translate(71,144)"/>
<path d="M0 0 C4.42700422 1.39134418 6.99413292 3.47884142 10 7 C10 7.99 10 8.98 10 10 C6.54804233 8.5741914 4.8985744 6.90253666 2.75 3.875 C1.96882812 2.78832031 1.96882812 2.78832031 1.171875 1.6796875 C0.78515625 1.12539062 0.3984375 0.57109375 0 0 Z " fill="#F2EC98" transform="translate(142,127)"/>
<path d="M0 0 C1.66666667 1.66666667 3.33333333 3.33333333 5 5 C5.61875 5.515625 6.2375 6.03125 6.875 6.5625 C7.431875 7.2740625 7.431875 7.2740625 8 8 C7.5703125 10.08984375 7.5703125 10.08984375 7 12 C6.01287122 10.75627811 5.03560095 9.50472782 4.0625 8.25 C3.51722656 7.55390625 2.97195312 6.8578125 2.41015625 6.140625 C1.02574346 4.03907872 0.43713013 2.45678201 0 0 Z " fill="#FCD83C" transform="translate(84,48)"/>
<path d="M0 0 C3.3 0 6.6 0 10 0 C9.67 0.66 9.34 1.32 9 2 C6.93359375 2.4140625 6.93359375 2.4140625 4.4375 2.625 C3.61121094 2.69976562 2.78492188 2.77453125 1.93359375 2.8515625 C0.97646484 2.92503906 0.97646484 2.92503906 0 3 C0 2.01 0 1.02 0 0 Z " fill="#36B6DE" transform="translate(35,195)"/>
<path d="M0 0 C1.81325551 0.11351517 3.62563357 0.24112961 5.4375 0.375 C6.95150391 0.47941406 6.95150391 0.47941406 8.49609375 0.5859375 C9.73552734 0.79089844 9.73552734 0.79089844 11 1 C11.33 1.66 11.66 2.32 12 3 C8.37 3 4.74 3 1 3 C0.67 2.01 0.34 1.02 0 0 Z " fill="#38C3E2" transform="translate(89,200)"/>
<path d="M0 0 C3.01217112 0.64449607 5.51655836 1.65022182 8.25 3.0625 C8.95640625 3.42472656 9.6628125 3.78695312 10.390625 4.16015625 C10.92171875 4.43730469 11.4528125 4.71445313 12 5 C10 6 10 6 7.6171875 5.22265625 C6.71226563 4.83980469 5.80734375 4.45695313 4.875 4.0625 C3.50988281 3.49208984 3.50988281 3.49208984 2.1171875 2.91015625 C1.41851562 2.60980469 0.71984375 2.30945313 0 2 C0 1.34 0 0.68 0 0 Z " fill="#F2EFCD" transform="translate(14,145)"/>
<path d="M0 0 C0.33 0 0.66 0 1 0 C0.63118644 6.14689273 -0.90050429 8.69027374 -5 13 C-5.33 12.01 -5.66 11.02 -6 10 C-5.566875 9.649375 -5.13375 9.29875 -4.6875 8.9375 C-2.31641544 6.21514365 -1.3283165 3.35241784 0 0 Z " fill="#43C4E1" transform="translate(200,35)"/>
<path d="M0 0 C0.66 0 1.32 0 2 0 C4.23269231 6.45 4.23269231 6.45 3.0546875 9.234375 C2.70664063 9.81703125 2.35859375 10.3996875 2 11 C1.664061 9.5422647 1.33133376 8.08378894 1 6.625 C0.814375 5.81289062 0.62875 5.00078125 0.4375 4.1640625 C0 2 0 2 0 0 Z " fill="#2B91C9" transform="translate(13,158)"/>
<path d="M0 0 C3.78520613 0.54074373 5.59177555 2.07572746 8 5 C8 5.99 8 6.98 8 8 C5 7 5 7 4 5.125 C3.505 4.073125 3.505 4.073125 3 3 C1.4587688 1.29078411 1.4587688 1.29078411 0 0 Z " fill="#F7DD55" transform="translate(128,111)"/>
<path d="M0 0 C-3.74525799 3.74525799 -7.98270909 3.68909949 -13 4 C-13 3.34 -13 2.68 -13 2 C-8.46298506 0.54815522 -4.81938524 -0.23509196 0 0 Z " fill="#6BDB9A" transform="translate(41,95)"/>
<path d="M0 0 C1.66666667 1.66666667 3.33333333 3.33333333 5 5 C5.8971875 5.8353125 5.8971875 5.8353125 6.8125 6.6875 C8 8 8 8 8 10 C4.63362603 8.5572683 2.33497429 6.83532593 0 4 C0 2.68 0 1.36 0 0 Z " fill="#FCD937" transform="translate(121,90)"/>
<path d="M0 0 C0.66 0.33 1.32 0.66 2 1 C2.042721 2.66611905 2.04063832 4.33382885 2 6 C1 7 1 7 -1.5625 7.0625 C-2.7690625 7.0315625 -2.7690625 7.0315625 -4 7 C-4 6.34 -4 5.68 -4 5 C-2.68 5 -1.36 5 0 5 C0 3.35 0 1.7 0 0 Z " fill="#F2F0C2" transform="translate(236,97)"/>
<path d="M0 0 C0.33 0.66 0.66 1.32 1 2 C1.66 2 2.32 2 3 2 C4.32 4.31 5.64 6.62 7 9 C5.1875 8.8125 5.1875 8.8125 3 8 C0.85802506 5.09303401 0 3.64478912 0 0 Z " fill="#FBDF37" transform="translate(77,39)"/>
<path d="M0 0 C0.33 1.32 0.66 2.64 1 4 C-1.31 3.67 -3.62 3.34 -6 3 C-6 2.34 -6 1.68 -6 1 C-3.92446352 0.4465236 -2.15634036 0 0 0 Z " fill="#F6CD4C" transform="translate(68,161)"/>
<path d="M0 0 C2.31 1.65 4.62 3.3 7 5 C6.67 5.99 6.34 6.98 6 8 C1.125 3.375 1.125 3.375 0 0 Z " fill="#F9EDB9" transform="translate(150,145)"/>
<path d="M0 0 C2.5625 2.25 2.5625 2.25 5 5 C4.8125 7.3125 4.8125 7.3125 4 9 C0 4.5 0 4.5 0 0 Z " fill="#F5F4E2" transform="translate(157,143)"/>
</svg>
